<svg width="21" height="20" viewBox="0 0 21 20" fill="none" xmlns="http://www.w3.org/2000/svg">
<path id="Vector" d="M20.1372 3.64139H3.71775L3.47368 0.816059C3.43376 0.354025 3.0611 0 2.61469 0H0.862433C0.386124 0 0 0.401223 0 0.896159C0 1.39109 0.386124 1.79232 0.862433 1.79232H1.82622C2.35292 7.8897 0.991675 -7.86977 2.81815 13.2755C2.88854 14.1031 3.31889 15.0012 4.06025 15.6114C2.72361 17.3851 3.94489 20 6.11917 20C7.92379 20 9.19662 18.1298 8.57776 16.3584H13.298C12.6799 18.1275 13.95 20 15.7566 20C17.1983 20 18.3713 18.7812 18.3713 17.2831C18.3713 15.7849 17.1983 14.5661 15.7566 14.5661H6.125C5.46988 14.5661 4.89899 14.1554 4.65258 13.557L18.4354 12.7153C18.8117 12.6924 19.13 12.4181 19.2215 12.0381L20.9739 4.75489C21.1097 4.19014 20.6983 3.64139 20.1372 3.64139ZM6.11917 18.2077C5.62857 18.2077 5.22939 17.7929 5.22939 17.2831C5.22939 16.7732 5.62857 16.3584 6.11917 16.3584C6.60981 16.3584 7.009 16.7732 7.009 17.2831C7.009 17.7929 6.60981 18.2077 6.11917 18.2077ZM15.7565 18.2077C15.2659 18.2077 14.8667 17.7929 14.8667 17.2831C14.8667 16.7732 15.2659 16.3584 15.7565 16.3584C16.2472 16.3584 16.6464 16.7732 16.6464 17.2831C16.6464 17.7929 16.2472 18.2077 15.7565 18.2077ZM17.7018 10.9648L4.42042 11.7758L3.87257 5.43367H19.0326L17.7018 10.9648Z" fill="white"/>
</svg>
